<svg width="27" height="28" viewBox="0 0 27 28" fill="none" xmlns="http://www.w3.org/2000/svg">
<path d="M13.0781 0.4375C5.85309 0.4375 0 6.50825 0 14C0 21.4918 5.85394 27.5625 13.0781 27.5625C20.3032 27.5625 26.1562 21.4918 26.1562 14C26.1562 6.50825 20.3023 0.4375 13.0781 0.4375ZM19.5016 9.72913L17.3551 20.2186C17.1965 20.9624 16.7695 21.1426 16.1738 20.7926L12.9043 18.2936L11.3273 19.8686C11.1535 20.0489 11.0059 20.202 10.6684 20.202L10.9004 16.751L16.9594 11.074C17.2235 10.8334 16.9012 10.6969 16.5527 10.9375L9.06441 15.8261L5.83706 14.7814C5.13591 14.5521 5.11987 14.0542 5.98472 13.7042L18.5937 8.66162C19.1793 8.44287 19.6906 8.8095 19.5007 9.72825L19.5016 9.72913Z" fill="black"/>
</svg>
