<svg width="29" height="28" viewBox="0 0 29 28" fill="none" xmlns="http://www.w3.org/2000/svg">
<path opacity="0.8" d="M27.4581 0H1.69813C1.07862 0 0.578125 0.5005 0.578125 1.12V26.88C0.578125 27.4995 1.07862 28 1.69813 28H27.4581C28.0776 28 28.5781 27.4995 28.5781 26.88V1.12C28.5781 0.5005 28.0776 0 27.4581 0ZM24.2241 8.1725H21.9876C20.2341 8.1725 19.8946 9.0055 19.8946 10.2305V12.929H24.0806L23.5346 17.1535H19.8946V28H15.5301V17.157H11.8796V12.929H15.5301V9.814C15.5301 6.1985 17.7386 4.228 20.9656 4.228C22.5126 4.228 23.8391 4.3435 24.2276 4.396V8.1725H24.2241Z" fill="black"/>
</svg>
