<svg width="26" height="26" viewBox="0 0 26 26" fill="none" xmlns="http://www.w3.org/2000/svg">
<path fill-rule="evenodd" clip-rule="evenodd" d="M7.97625 0.243016C9.29588 0.180016 9.71663 0.166016 13.0781 0.166016C16.4396 0.166016 16.8604 0.181182 18.1789 0.243016C19.4974 0.304849 20.3974 0.523016 21.1849 0.839182C22.0095 1.16235 22.7576 1.66752 23.3764 2.32085C24.0064 2.96135 24.4924 3.73602 24.8029 4.59235C25.1089 5.40902 25.3181 6.34235 25.3789 7.70735C25.4396 9.07818 25.4531 9.51451 25.4531 12.9993C25.4531 16.4853 25.4385 16.9217 25.3789 18.2902C25.3193 19.6552 25.1089 20.5885 24.8029 21.4052C24.4924 22.2616 24.0056 23.0376 23.3764 23.679C22.7576 24.3323 22.0095 24.8363 21.1849 25.1583C20.3974 25.4757 19.4974 25.6927 18.1811 25.7557C16.8604 25.8187 16.4396 25.8327 13.0781 25.8327C9.71663 25.8327 9.29588 25.8175 7.97625 25.7557C6.66 25.6938 5.76 25.4757 4.9725 25.1583C4.14666 24.8363 3.39842 24.3315 2.77988 23.679C2.1503 23.0381 1.6631 22.2625 1.35225 21.4063C1.04738 20.5897 0.838125 19.6563 0.777375 18.2913C0.716625 16.9205 0.703125 16.4842 0.703125 12.9993C0.703125 9.51335 0.71775 9.07701 0.777375 7.70968C0.837 6.34235 1.04738 5.40902 1.35225 4.59235C1.66356 3.73611 2.15113 2.96055 2.781 2.31968C3.39867 1.66693 4.14616 1.1617 4.97137 0.839182C5.75888 0.523016 6.65888 0.306016 7.97513 0.243016H7.97625ZM18.0788 2.55302C16.7738 2.49118 16.3822 2.47835 13.0781 2.47835C9.774 2.47835 9.3825 2.49118 8.0775 2.55302C6.87037 2.61018 6.21563 2.81902 5.77913 2.99518C5.202 3.22852 4.78913 3.50502 4.356 3.95418C3.94543 4.36841 3.62945 4.87268 3.43125 5.43002C3.26137 5.88268 3.06 6.56168 3.00487 7.81351C2.94525 9.16685 2.93288 9.57285 2.93288 12.9993C2.93288 16.4258 2.94525 16.8318 3.00487 18.1852C3.06 19.437 3.26137 20.116 3.43125 20.5687C3.62925 21.1252 3.94538 21.6303 4.356 22.0445C4.75538 22.4703 5.2425 22.7982 5.77913 23.0035C6.21563 23.1797 6.87037 23.3885 8.0775 23.4457C9.3825 23.5075 9.77287 23.5203 13.0781 23.5203C16.3834 23.5203 16.7738 23.5075 18.0788 23.4457C19.2859 23.3885 19.9406 23.1797 20.3771 23.0035C20.9543 22.7702 21.3671 22.4937 21.8003 22.0445C22.2109 21.6303 22.527 21.1252 22.725 20.5687C22.8949 20.116 23.0963 19.437 23.1514 18.1852C23.211 16.8318 23.2234 16.4258 23.2234 12.9993C23.2234 9.57285 23.211 9.16685 23.1514 7.81351C23.0963 6.56168 22.8949 5.88268 22.725 5.43002C22.5 4.83152 22.2334 4.40335 21.8003 3.95418C21.4008 3.52843 20.9145 3.20076 20.3771 2.99518C19.9406 2.81902 19.2859 2.61018 18.0788 2.55302ZM11.4975 16.9555C12.3802 17.3366 13.3632 17.388 14.2784 17.101C15.1937 16.814 15.9844 16.2064 16.5157 15.382C17.0469 14.5575 17.2857 13.5674 17.1912 12.5806C17.0967 11.5939 16.6748 10.6718 15.9975 9.97185C15.5658 9.5244 15.0437 9.1818 14.469 8.96869C13.8943 8.75558 13.2811 8.67727 12.6737 8.7394C12.0663 8.80153 11.4797 9.00255 10.9562 9.328C10.4326 9.65345 9.98521 10.0952 9.64609 10.6215C9.30697 11.1478 9.08459 11.7455 8.99496 12.3716C8.90532 12.9978 8.95067 13.6367 9.12773 14.2424C9.30479 14.8482 9.60917 15.4057 10.0189 15.8749C10.4287 16.344 10.9337 16.7131 11.4975 16.9555ZM8.58037 8.33501C9.17103 7.72249 9.87224 7.2366 10.644 6.9051C11.4157 6.5736 12.2428 6.40298 13.0781 6.40298C13.9134 6.40298 14.7406 6.5736 15.5123 6.9051C16.284 7.2366 16.9852 7.72249 17.5759 8.33501C18.1665 8.94754 18.6351 9.67472 18.9547 10.475C19.2744 11.2753 19.4389 12.1331 19.4389 12.9993C19.4389 13.8656 19.2744 14.7234 18.9547 15.5237C18.6351 16.324 18.1665 17.0512 17.5759 17.6637C16.383 18.9007 14.7651 19.5957 13.0781 19.5957C11.3911 19.5957 9.77325 18.9007 8.58037 17.6637C7.3875 16.4266 6.71735 14.7488 6.71735 12.9993C6.71735 11.2499 7.3875 9.57207 8.58037 8.33501ZM20.8496 7.38535C20.996 7.24216 21.1132 7.06998 21.1942 6.87898C21.2753 6.68799 21.3185 6.48208 21.3215 6.27343C21.3244 6.06479 21.2869 5.85765 21.2113 5.66429C21.1356 5.47093 21.0234 5.29528 20.8811 5.14773C20.7388 5.00018 20.5694 4.88373 20.383 4.80529C20.1965 4.72684 19.9968 4.68799 19.7956 4.69103C19.5944 4.69407 19.3958 4.73894 19.2117 4.82299C19.0275 4.90704 18.8614 5.02856 18.7234 5.18035C18.4548 5.47555 18.3078 5.86766 18.3135 6.27343C18.3192 6.67921 18.4772 7.06671 18.7539 7.35366C19.0306 7.64062 19.4043 7.80445 19.7956 7.81036C20.1869 7.81628 20.565 7.66382 20.8496 7.38535Z" fill="black"/>
</svg>
