<svg width="18" height="20" viewBox="0 0 18 20" fill="none" xmlns="http://www.w3.org/2000/svg">
<path d="M14.3446 19.8372H3.01357C2.77504 19.8316 2.53996 19.779 2.32176 19.6825C2.10356 19.586 1.90651 19.4475 1.74188 19.2748C1.57725 19.1021 1.44825 18.8986 1.36227 18.6761C1.27629 18.4535 1.235 18.2162 1.24076 17.9777V5.72302H2.48049V17.9777C2.47457 18.0534 2.48368 18.1296 2.50731 18.2018C2.53093 18.274 2.56859 18.3408 2.61813 18.3984C2.66767 18.456 2.72811 18.5033 2.79598 18.5375C2.86384 18.5716 2.93779 18.592 3.01357 18.5975H14.3446C14.4204 18.592 14.4943 18.5716 14.5622 18.5375C14.6301 18.5033 14.6905 18.456 14.7401 18.3984C14.7896 18.3408 14.8273 18.274 14.8509 18.2018C14.8745 18.1296 14.8836 18.0534 14.8777 17.9777V5.72302H16.1174V17.9777C16.1232 18.2162 16.0819 18.4535 15.9959 18.6761C15.9099 18.8986 15.7809 19.1021 15.6163 19.2748C15.4517 19.4475 15.2546 19.586 15.0364 19.6825C14.8182 19.779 14.5831 19.8316 14.3446 19.8372Z" fill="black"/>
<path d="M16.5999 4.33762H0.619861C0.455463 4.33762 0.297799 4.27231 0.181553 4.15607C0.0653067 4.03982 0 3.88216 0 3.71776C0 3.55336 0.0653067 3.3957 0.181553 3.27945C0.297799 3.16321 0.455463 3.0979 0.619861 3.0979H16.5999C16.7643 3.0979 16.9219 3.16321 17.0382 3.27945C17.1544 3.3957 17.2197 3.55336 17.2197 3.71776C17.2197 3.88216 17.1544 4.03982 17.0382 4.15607C16.9219 4.27231 16.7643 4.33762 16.5999 4.33762Z" fill="black"/>
<path d="M10.5371 6.81641H11.7768V16.1143H10.5371V6.81641Z" fill="black"/>
<path d="M5.57812 6.81641H6.81785V16.1143H5.57812V6.81641Z" fill="black"/>
<path d="M11.7767 2.39266H10.599V1.23972H6.75586V2.39266H5.57813V1.23972C5.57773 0.92139 5.6998 0.615104 5.91905 0.384313C6.1383 0.153523 6.43793 0.0159163 6.75586 0H10.599C10.9169 0.0159163 11.2166 0.153523 11.4358 0.384313C11.6551 0.615104 11.7771 0.92139 11.7767 1.23972V2.39266Z" fill="black"/>
</svg>
