<svg width="89" height="81" viewBox="0 0 89 81" fill="none" xmlns="http://www.w3.org/2000/svg">
<path d="M85.488 57.424H26.4093L29.3757 51.309L78.6625 51.2187C80.3292 51.2187 81.7578 50.0138 82.0554 48.347L88.881 9.67943C89.0595 8.6653 88.7917 7.62105 88.1369 6.82782C87.8133 6.43743 87.4096 6.12296 86.9539 5.90623C86.4982 5.6895 86.0014 5.57569 85.4979 5.5727L22.7981 5.36184L22.2624 2.81145C21.9251 1.18483 20.4766 0 18.8298 0H3.50206C2.57326 0 1.68249 0.373431 1.02573 1.03814C0.368966 1.70285 0 2.6044 0 3.54444C0 4.48448 0.368966 5.38603 1.02573 6.05074C1.68249 6.71545 2.57326 7.08888 3.50206 7.08888H15.9924L18.3337 18.3548L24.0978 46.5998L16.677 58.8598C16.2916 59.3862 16.0595 60.0113 16.0069 60.6643C15.9543 61.3173 16.0833 61.9722 16.3793 62.5549C16.9746 63.7497 18.175 64.5028 19.5044 64.5028H25.7347C24.4065 66.2883 23.6891 68.4631 23.691 70.698C23.691 76.3812 28.2546 81 33.8698 81C39.485 81 44.0486 76.3812 44.0486 70.698C44.0486 68.4589 43.3145 66.28 42.0049 64.5028H57.9874C56.6592 66.2883 55.9418 68.4631 55.9437 70.698C55.9437 76.3812 60.5073 81 66.1225 81C71.7377 81 76.3013 76.3812 76.3013 70.698C76.3013 68.4589 75.5672 66.28 74.2576 64.5028H85.4979C87.4226 64.5028 89 62.9163 89 60.9583C88.9942 60.0193 88.6217 59.1207 87.9638 58.4585C87.3059 57.7964 86.4159 57.4245 85.488 57.424ZM24.2565 12.3503L81.3808 12.5411L75.7854 44.2503L30.9134 44.3306L24.2565 12.3503ZM33.8698 73.871C32.1436 73.871 30.7348 72.4451 30.7348 70.698C30.7348 68.9509 32.1436 67.5251 33.8698 67.5251C35.596 67.5251 37.0048 68.9509 37.0048 70.698C37.0048 71.5395 36.6745 72.3466 36.0866 72.9416C35.4986 73.5367 34.7013 73.871 33.8698 73.871ZM66.1225 73.871C64.3963 73.871 62.9875 72.4451 62.9875 70.698C62.9875 68.9509 64.3963 67.5251 66.1225 67.5251C67.8487 67.5251 69.2575 68.9509 69.2575 70.698C69.2575 71.5395 68.9272 72.3466 68.3393 72.9416C67.7514 73.5367 66.954 73.871 66.1225 73.871Z" fill="#C1C1C1"/>
</svg>
