<svg xmlns="http://www.w3.org/2000/svg" width="41.296" height="48.177" viewBox="0 0 41.296 48.177">
  <g id="icon-3" transform="translate(-0.137)">
    <path id="Path_8" data-name="Path 8" d="M8.738.007h3.441v17.2H8.738Z" fill="#e01e26"/>
    <path id="Path_9" data-name="Path 9" d="M17.34,15.49a6.881,6.881,0,1,1-13.763,0V.007H.137V15.49a10.322,10.322,0,0,0,8.6,10.167V48.176h3.441V25.657a10.322,10.322,0,0,0,8.6-10.167V.007H17.34Z" fill="#e01e26"/>
    <path id="Path_10" data-name="Path 10" d="M31.1.007h-1.72v48.17h3.441v-17.2h5.161a3.441,3.441,0,0,0,3.441-3.441V10.33A9.944,9.944,0,0,0,31.1.007Zm6.881,27.525H32.824V3.6c4.955.963,5.161,6.09,5.161,6.726Z" fill="#e01e26"/>
  </g>
</svg>
