<svg xmlns="http://www.w3.org/2000/svg" width="52.468" height="49.188" viewBox="0 0 52.468 49.188">
  <path id="icon-1" d="M10.212,1.148A3.279,3.279,0,0,1,12.7,0h28A3.279,3.279,0,0,1,43.2,1.148l8.556,9.982a4.919,4.919,0,0,1,1.184,3.2v.836A7.788,7.788,0,0,1,39,19.948a7.785,7.785,0,0,1-12.3,0,7.785,7.785,0,0,1-12.3,0A7.788,7.788,0,0,1,.473,15.167V14.33a4.919,4.919,0,0,1,1.184-3.2l8.559-9.985Zm5.837,14.019a4.509,4.509,0,1,0,9.018,0,1.64,1.64,0,0,1,3.279,0,4.509,4.509,0,0,0,9.018,0,1.64,1.64,0,1,1,3.279,0,4.509,4.509,0,1,0,9.018,0V14.33a1.64,1.64,0,0,0-.394-1.066L40.709,3.279h-28L4.145,13.264a1.64,1.64,0,0,0-.394,1.066v.836a4.509,4.509,0,1,0,9.018,0,1.64,1.64,0,1,1,3.279,0ZM5.392,24.594a1.64,1.64,0,0,1,1.64,1.64V45.909H46.382V26.234a1.64,1.64,0,1,1,3.279,0V45.909H51.3a1.64,1.64,0,1,1,0,3.279H2.112a1.64,1.64,0,1,1,0-3.279h1.64V26.234a1.64,1.64,0,0,1,1.64-1.64Zm6.558,1.64a1.64,1.64,0,0,1,1.64,1.64V39.351H39.824V27.874a1.64,1.64,0,1,1,3.279,0V39.351a3.279,3.279,0,0,1-3.279,3.279H13.59a3.279,3.279,0,0,1-3.279-3.279V27.874a1.64,1.64,0,0,1,1.64-1.64Z" transform="translate(-0.473)" fill="#979797"/>
</svg>
