<svg width="22" height="22" viewBox="0 0 22 22" fill="none" xmlns="http://www.w3.org/2000/svg">
<path d="M0.321886 11.7772L10.198 21.6776C10.6259 22.1066 11.3255 22.1077 11.7534 21.6798L21.6768 11.7794C21.7793 11.6772 21.8605 11.5558 21.916 11.4222C21.9715 11.2886 22 11.1453 22 11.0006C22 10.8559 21.9715 10.7126 21.916 10.579C21.8605 10.4453 21.7793 10.324 21.6768 10.2218L11.7534 0.321434C11.6512 0.219334 11.5299 0.138391 11.3963 0.0832362C11.2628 0.0280812 11.1197 -0.000203245 10.9752 1.09937e-06C10.8308 0.000205444 10.6878 0.0288946 10.5544 0.0844271C10.421 0.13996 10.2999 0.221246 10.198 0.323634L0.321886 10.224C0.219842 10.3259 0.13889 10.447 0.0836591 10.5802C0.028428 10.7135 0 10.8563 0 11.0006C0 11.1448 0.028428 11.2877 0.0836591 11.4209C0.13889 11.5542 0.219842 11.6753 0.321886 11.7772ZM7.69981 8.80052H13.2V6.60045L16.5001 9.90056L13.2 13.2007V11.0006H9.89987V15.4007H7.69981V8.80052Z" fill="white"/>
</svg>
