<svg xmlns="http://www.w3.org/2000/svg" width="49.421" height="49.421" viewBox="0 0 49.421 49.421">
  <g id="icon-4" transform="translate(-0.871 -0.602)">
    <path id="Path_7" data-name="Path 7" d="M33.9,16.984,17.253,33.637m6-30.673-3.76,3.753a3.29,3.29,0,0,1-2.324.966H11.245a3.29,3.29,0,0,0-3.29,3.29v5.922a3.291,3.291,0,0,1-.966,2.325L3.233,22.986a3.291,3.291,0,0,0,0,4.653L7,31.4a3.287,3.287,0,0,1,.962,2.325v5.922a3.289,3.289,0,0,0,3.29,3.29H17.17a3.276,3.276,0,0,1,2.325.966l3.763,3.76a3.29,3.29,0,0,0,4.652,0l3.76-3.763a3.29,3.29,0,0,1,2.324-.962h5.921a3.29,3.29,0,0,0,3.29-3.29V33.723a3.277,3.277,0,0,1,.966-2.325l3.76-3.763a3.291,3.291,0,0,0,0-4.653l-3.763-3.76A3.291,3.291,0,0,1,43.2,16.9V10.976a3.29,3.29,0,0,0-3.29-3.29H33.994a3.29,3.29,0,0,1-2.324-.966L27.9,2.963a3.29,3.29,0,0,0-4.652,0Z" fill="none" stroke="#979797" stroke-width="2.797"/>
    <circle id="Ellipse_1" data-name="Ellipse 1" cx="2.797" cy="2.797" r="2.797" transform="translate(16.257 14.122)" fill="none" stroke="#979797" stroke-width="1.865"/>
    <circle id="Ellipse_2" data-name="Ellipse 2" cx="2.797" cy="2.797" r="2.797" transform="translate(29.311 30.907)" fill="none" stroke="#979797" stroke-width="1.865"/>
  </g>
</svg>
