<svg width="25" height="23" viewBox="0 0 25 23" fill="none" xmlns="http://www.w3.org/2000/svg">
<path d="M24.0135 16.3056H7.41835L8.25159 14.5692L22.0962 14.5436C22.5644 14.5436 22.9657 14.2014 23.0493 13.7282L24.9666 2.74848C25.0167 2.46052 24.9415 2.164 24.7576 1.93876C24.6666 1.82791 24.5533 1.73862 24.4253 1.67708C24.2973 1.61554 24.1577 1.58322 24.0163 1.58237L6.40397 1.5225L6.25348 0.798314C6.15873 0.336432 5.75187 0 5.28927 0H0.983725C0.722825 0 0.472611 0.106036 0.288126 0.294781C0.103642 0.483526 0 0.73952 0 1.00645C0 1.27337 0.103642 1.52937 0.288126 1.71811C0.472611 1.90686 0.722825 2.01289 0.983725 2.01289H4.49225L5.14993 5.21185L6.76903 13.2321L4.68454 16.7133C4.57629 16.8628 4.51109 17.0402 4.49631 17.2257C4.48154 17.4111 4.51778 17.597 4.60094 17.7625C4.76814 18.1018 5.10534 18.3156 5.47877 18.3156H7.22885C6.85575 18.8226 6.65423 19.4401 6.65478 20.0747C6.65478 21.6885 7.93669 23 9.51399 23C11.0913 23 12.3732 21.6885 12.3732 20.0747C12.3732 19.4389 12.167 18.8203 11.7991 18.3156H16.2886C15.9155 18.8226 15.714 19.4401 15.7145 20.0747C15.7145 21.6885 16.9964 23 18.5737 23C20.151 23 21.433 21.6885 21.433 20.0747C21.433 19.4389 21.2267 18.8203 20.8589 18.3156H24.0163C24.5569 18.3156 25 17.8651 25 17.3092C24.9984 17.0425 24.8937 16.7873 24.7089 16.5993C24.5241 16.4113 24.2741 16.3057 24.0135 16.3056ZM6.81362 3.50688L22.8598 3.56105L21.288 12.5649L8.68354 12.5877L6.81362 3.50688ZM9.51399 20.9757C9.02909 20.9757 8.63337 20.5708 8.63337 20.0747C8.63337 19.5787 9.02909 19.1738 9.51399 19.1738C9.99889 19.1738 10.3946 19.5787 10.3946 20.0747C10.3946 20.3137 10.3018 20.5429 10.1367 20.7118C9.97153 20.8808 9.74754 20.9757 9.51399 20.9757ZM18.5737 20.9757C18.0888 20.9757 17.6931 20.5708 17.6931 20.0747C17.6931 19.5787 18.0888 19.1738 18.5737 19.1738C19.0586 19.1738 19.4544 19.5787 19.4544 20.0747C19.4544 20.3137 19.3616 20.5429 19.1964 20.7118C19.0313 20.8808 18.8073 20.9757 18.5737 20.9757Z" fill="white"/>
</svg>
