<svg width="43" height="43" viewBox="0 0 43 43" fill="none" xmlns="http://www.w3.org/2000/svg">
<path d="M21.5 0C9.62587 0 0 9.62587 0 21.5C0 33.3741 9.62587 43 21.5 43C33.3741 43 43 33.3741 43 21.5C43 9.62587 33.3741 0 21.5 0ZM10.6634 9.08343L14.4899 10.2855C14.9965 10.4518 15.3339 10.9223 15.3927 11.4035L15.608 13.5109L32.935 15.4452C33.679 15.5893 34.2018 16.2611 34.0976 16.9516L33.0216 23.0142C32.8846 23.6484 32.3594 24.083 31.775 24.0902H16.3822L16.0804 25.8093H30.6989C31.4633 25.8362 32.0232 26.4183 32.0322 27.098C32.0005 27.8733 31.3755 28.3808 30.6989 28.3892H14.5319C13.7165 28.3218 13.1179 27.6756 13.2433 26.8854L13.9309 23.1008L12.8548 12.5215L9.88914 11.5767C9.54514 11.4621 9.28692 11.2464 9.11492 10.9311C8.78949 10.2491 9.09346 9.49401 9.67396 9.16739C10.0053 8.99517 10.3289 8.97371 10.6634 9.08343ZM16.4898 29.1321C17.603 29.1321 18.5054 30.0345 18.5054 31.1477C18.5054 32.2609 17.603 33.1633 16.4898 33.1633C15.3767 33.1633 14.4742 32.2609 14.4742 31.1477C14.4742 30.0345 15.3766 29.1321 16.4898 29.1321ZM28.3211 29.1321C29.4343 29.1321 30.3367 30.0345 30.3367 31.1477C30.3367 32.2609 29.4343 33.1633 28.3211 33.1633C27.2079 33.1633 26.3055 32.2609 26.3055 31.1477C26.3055 30.0345 27.2079 29.1321 28.3211 29.1321Z" fill="white"/>
</svg>
