<svg width="37" height="37" viewBox="0 0 37 37" fill="none" xmlns="http://www.w3.org/2000/svg">
<path d="M37 18.4815C37 8.27875 28.712 0 18.5 0C8.288 0 0 8.27875 0 18.4815C0 24.1009 2.553 29.1652 6.549 32.5646C6.586 32.6016 6.623 32.6016 6.623 32.6386C6.956 32.8976 7.289 33.1566 7.659 33.4156C7.844 33.5266 7.992 33.6723 8.177 33.8203C11.2343 35.8932 14.8433 37.0008 18.537 37C22.2307 37.0008 25.8397 35.8932 28.897 33.8203C29.082 33.7093 29.23 33.5636 29.415 33.4503C29.748 33.1936 30.118 32.9346 30.451 32.6756C30.488 32.6386 30.525 32.6386 30.525 32.6016C34.447 29.1629 37 24.1009 37 18.4815ZM18.5 34.6713C15.022 34.6713 11.84 33.5613 9.213 31.7136C9.25 31.4176 9.324 31.1239 9.398 30.8279C9.61847 30.0257 9.94182 29.2555 10.36 28.5363C10.767 27.8333 11.248 27.2043 11.84 26.6493C12.395 26.0942 13.061 25.5786 13.727 25.1716C14.43 24.7646 15.17 24.4686 15.984 24.2466C16.8043 24.0254 17.6504 23.9142 18.5 23.9159C21.0221 23.898 23.4516 24.8655 25.271 26.6123C26.122 27.4633 26.788 28.4623 27.269 29.6069C27.528 30.2729 27.713 30.9759 27.824 31.7136C25.0933 33.6334 21.8379 34.666 18.5 34.6713ZM12.839 17.5588C12.513 16.8124 12.349 16.0053 12.358 15.1908C12.358 14.3791 12.506 13.5651 12.839 12.8251C13.172 12.0851 13.616 11.4214 14.171 10.8664C14.726 10.3114 15.392 9.86975 16.132 9.53675C16.872 9.20375 17.686 9.05575 18.5 9.05575C19.351 9.05575 20.128 9.20375 20.868 9.53675C21.608 9.86975 22.274 10.3137 22.829 10.8664C23.384 11.4214 23.828 12.0874 24.161 12.8251C24.494 13.5651 24.642 14.3791 24.642 15.1908C24.642 16.0418 24.494 16.8188 24.161 17.5565C23.8396 18.2856 23.3883 18.95 22.829 19.5175C22.2613 20.0759 21.5969 20.5265 20.868 20.8472C19.339 21.4755 17.624 21.4755 16.095 20.8472C15.3661 20.5265 14.7016 20.0759 14.134 19.5175C13.5739 18.9583 13.1334 18.2911 12.839 17.5565V17.5588ZM30.007 29.8289C30.007 29.7549 29.97 29.7179 29.97 29.6439C29.6061 28.4863 29.0697 27.3902 28.379 26.3926C27.6876 25.3875 26.8379 24.5011 25.863 23.7679C25.1184 23.2077 24.3114 22.7359 23.458 22.3619C23.8462 22.1058 24.2059 21.8088 24.531 21.4762C25.0826 20.9316 25.5671 20.3229 25.974 19.6632C26.7935 18.3169 27.2167 16.7668 27.195 15.1908C27.2064 14.0242 26.9798 12.8675 26.529 11.7914C26.0839 10.7546 25.4432 9.81322 24.642 9.01875C23.842 8.23257 22.9004 7.60486 21.867 7.16875C20.7892 6.71872 19.631 6.49291 18.463 6.50506C17.2949 6.49364 16.1367 6.72024 15.059 7.17106C14.0166 7.60625 13.0728 8.24726 12.284 9.05575C11.4978 9.85492 10.8701 10.7957 10.434 11.8284C9.98318 12.9045 9.75656 14.0612 9.768 15.2278C9.768 16.0418 9.879 16.8188 10.101 17.5565C10.323 18.3335 10.619 19.0365 11.026 19.7002C11.396 20.3662 11.914 20.9582 12.469 21.5132C12.802 21.8462 13.172 22.1399 13.579 22.3989C12.723 22.7829 11.9157 23.2673 11.174 23.8419C10.212 24.5819 9.361 25.4676 8.658 26.4296C7.96022 27.4231 7.42331 28.5203 7.067 29.6809C7.03 29.7549 7.03 29.8289 7.03 29.8659C4.107 26.9082 2.294 22.9169 2.294 18.4815C2.294 9.57375 9.583 2.29169 18.5 2.29169C27.417 2.29169 34.706 9.57375 34.706 18.4815C34.7012 22.7364 33.0117 26.8163 30.007 29.8289Z" fill="white"/>
</svg>
