<svg width="236" height="167" viewBox="0 0 236 167" fill="none" xmlns="http://www.w3.org/2000/svg">
<path d="M201.706 23.9463C201.706 10.8529 191.074 0.140015 178.079 0.140015H142.639V23.9463H178.079V55.4897L136.968 107.268H95.385V56.9089H48.1315C22.0239 56.9089 0.87793 69.0593 0.87793 95.3653V131.075H24.5047C24.5047 150.834 40.3347 166.784 59.9449 166.784C79.5551 166.784 95.385 150.834 95.385 131.075H148.309L201.706 63.8219V23.9463ZM59.9449 142.978C53.4475 142.978 48.1315 137.621 48.1315 131.075H71.7583C71.7583 137.621 66.4422 142.978 59.9449 142.978Z" fill="#BDBDBD"/>
<path d="M200.448 95.787C180.838 95.787 165.008 111.643 165.008 131.285C165.008 150.927 180.838 166.783 200.448 166.783C220.058 166.783 235.888 150.927 235.888 131.285C235.888 111.643 220.058 95.787 200.448 95.787ZM200.448 143.118C193.951 143.118 188.635 137.793 188.635 131.285C188.635 124.777 193.951 119.452 200.448 119.452C206.945 119.452 212.261 124.777 212.261 131.285C212.261 137.793 206.945 143.118 200.448 143.118Z" fill="#BDBDBD"/>
</svg>
