<svg width="264" height="55" viewBox="0 0 264 55" fill="none" xmlns="http://www.w3.org/2000/svg">
<path d="M19.8231 49.0321H17.7812V48.0457H23.0108V49.0321H20.9689V54.3228H19.8231V49.0321Z" fill="#231F20"/>
<path d="M26.6133 51.1871C26.6133 49.3339 28.0235 47.9589 29.9332 47.9589C31.8428 47.9589 33.2531 49.3189 33.2531 51.1871C33.2531 53.0553 31.8428 54.4154 29.9332 54.4154C28.0382 54.4154 26.6133 53.0404 26.6133 51.1871ZM32.1073 51.1871C32.1073 49.9018 31.1818 48.9752 29.9332 48.9752C28.6845 48.9752 27.7591 49.9018 27.7591 51.1871C27.7591 52.4724 28.6845 53.3991 29.9332 53.3991C31.1818 53.3991 32.1073 52.4724 32.1073 51.1871Z" fill="#231F20"/>
<path d="M45.4219 48.0502H48.1248C50.1226 48.0502 51.4888 49.3056 51.4888 51.1887C51.4888 53.0719 50.1226 54.3273 48.1248 54.3273H45.4219V48.0502ZM48.066 53.3409C49.4469 53.3409 50.3283 52.489 50.3283 51.1887C50.3283 49.8885 49.4322 49.0366 48.066 49.0366H46.5677V53.3409H48.066Z" fill="#231F20"/>
<path d="M55.9766 48.0502H57.1224V54.3273H55.9766V48.0502Z" fill="#231F20"/>
<path d="M66.2699 51.1188H67.357V53.6147C66.7106 54.1378 65.8145 54.4068 64.9332 54.4068C63.0235 54.4068 61.6133 53.0468 61.6133 51.1786C61.6133 49.3104 63.0235 47.9503 64.9478 47.9503C65.9761 47.9503 66.8428 48.2941 67.4304 48.9666L66.7106 49.684C66.2259 49.1908 65.6676 48.9666 65.0066 48.9666C63.6992 48.9666 62.7738 49.8783 62.7738 51.1786C62.7738 52.4489 63.6992 53.3905 65.0066 53.3905C65.4473 53.3905 65.8733 53.3008 66.2699 53.0617V51.1188Z" fill="#231F20"/>
<path d="M72.1289 48.0502H73.2747V54.3273H72.1289V48.0502Z" fill="#231F20"/>
<path d="M79.4599 49.0366H77.418V48.0502H82.6475V49.0366H80.6057V54.3273H79.4599V49.0366Z" fill="#231F20"/>
<path d="M90.4756 52.8776H87.3907L86.7885 54.3273H85.6133L88.3897 48.0502H89.5208L92.3118 54.3273H91.1073L90.4756 52.8776ZM90.0937 51.9659L88.9332 49.2159L87.7727 51.9659H90.0937Z" fill="#231F20"/>
<path d="M96.3398 48.0502H97.4856V53.3409H100.717V54.3273H96.3398V48.0502Z" fill="#231F20"/>
<path d="M104.895 48.0502H106.04V54.3273H104.895V48.0502Z" fill="#231F20"/>
<path d="M110.457 53.6681L110.854 52.7564C111.353 53.1599 112.132 53.4439 112.896 53.4439C113.85 53.4439 114.262 53.1001 114.262 52.6219C114.262 51.2618 110.589 52.1586 110.589 49.8271C110.589 48.8108 111.382 47.9589 113.072 47.9589C113.806 47.9589 114.585 48.1532 115.128 48.5119L114.761 49.4235C114.203 49.0947 113.601 48.9303 113.057 48.9303C112.102 48.9303 111.72 49.304 111.72 49.7822C111.72 51.1124 115.378 50.2455 115.378 52.5472C115.378 53.5485 114.57 54.4154 112.881 54.4154C111.926 54.4154 110.971 54.1164 110.457 53.6681Z" fill="#231F20"/>
<path d="M124.416 53.3559V54.3273H119.789V48.0502H124.299V49.0216H120.935V50.6656H123.917V51.6222H120.935V53.3559H124.416Z" fill="#231F20"/>
<path d="M153.225 49.0366H151.184V48.0502H156.413V49.0366H154.371V54.3273H153.225V49.0366Z" fill="#231F20"/>
<path d="M160.035 51.1871C160.035 49.3339 161.445 47.9589 163.355 47.9589C165.265 47.9589 166.675 49.3189 166.675 51.1871C166.675 53.0553 165.265 54.4153 163.355 54.4153C161.445 54.4153 160.035 53.0404 160.035 51.1871ZM165.529 51.1871C165.529 49.9018 164.604 48.9752 163.355 48.9752C162.106 48.9752 161.181 49.9018 161.181 51.1871C161.181 52.4724 162.106 53.399 163.355 53.399C164.604 53.399 165.529 52.4724 165.529 51.1871Z" fill="#231F20"/>
<path d="M178.328 53.6681L178.725 52.7564C179.224 53.1599 180.003 53.4439 180.767 53.4439C181.721 53.4439 182.133 53.1001 182.133 52.6219C182.133 51.2618 178.46 52.1586 178.46 49.8271C178.46 48.8108 179.254 47.9589 180.943 47.9589C181.677 47.9589 182.456 48.1532 183 48.5119L182.632 49.4235C182.074 49.0947 181.472 48.9303 180.928 48.9303C179.973 48.9303 179.591 49.304 179.591 49.7822C179.591 51.1124 183.249 50.2455 183.249 52.5472C183.249 53.5485 182.441 54.4154 180.752 54.4154C179.797 54.4154 178.842 54.1164 178.328 53.6681Z" fill="#231F20"/>
<path d="M187.656 48.0502H188.802V54.3273H187.656V48.0502Z" fill="#231F20"/>
<path d="M199.405 54.3332L199.39 50.1634L197.363 53.6009H196.849L194.821 50.2082V54.3183H193.734V48.0411H194.675L197.128 52.211L199.537 48.0411H200.477L200.492 54.3183H199.405V54.3332Z" fill="#231F20"/>
<path d="M210.597 50.283C210.597 51.658 209.598 52.5099 207.967 52.5099H206.572V54.3183H205.426V48.0411H207.967C209.583 48.0561 210.597 48.893 210.597 50.283ZM209.436 50.283C209.436 49.4909 208.922 49.0425 207.908 49.0425H206.572V51.5384H207.908C208.922 51.5384 209.436 51.0751 209.436 50.283Z" fill="#231F20"/>
<path d="M215.008 48.0502H216.154V53.3409H219.385V54.3273H215.008V48.0502Z" fill="#231F20"/>
<path d="M223.559 48.0502H224.704V54.3273H223.559V48.0502Z" fill="#231F20"/>
<path d="M230.783 49.0216V50.9347H233.765V51.9211H230.783V54.3273H229.637V48.0502H234.146V49.0216H230.783Z" fill="#231F20"/>
<path d="M241.179 52.1154V54.3273H240.033V52.1303L237.609 48.0502H238.829L240.635 51.114L242.457 48.0502H243.588L241.179 52.1154Z" fill="#231F20"/>
<path d="M145.707 34.8209L146.236 35.6728C147.969 38.5124 145.707 41.382 142.431 41.382H142.167C140.727 41.382 139.376 40.6197 138.612 39.3793L135.072 34.2828L130.356 27.094L130.151 26.7353C128.608 24.613 129.24 25.0614 126.067 25.0614L117.268 25.0614V41.367H108.469V0.177002L134.381 0.177002C138.039 0.177002 141.344 1.41749 143.739 3.42019C146.133 5.4229 147.617 8.18783 147.617 11.2517C147.617 15.7204 146.794 21.4595 142.211 23.238C141.021 23.7163 139.743 24.0003 138.406 24.1198L145.707 34.8209ZM134.367 16.9161C134.998 16.9161 135.63 16.7965 136.203 16.5574C137.819 15.9745 138.877 14.2557 138.877 12.0886C138.877 10.1457 138.025 9.26392 137.54 8.84544C136.982 8.36718 135.924 7.7843 134.367 7.7843L117.268 7.7843V16.9609L134.367 16.9161Z" fill="#E01E26"/>
<path d="M161.015 11.3024V15.1285L178.672 15.1285C180.67 15.1285 182.286 16.7725 182.286 18.8051C182.286 20.8377 180.67 22.4817 178.672 22.4817L161.015 22.4817V30.2534C161.015 32.3159 163.057 34.0197 165.525 34.0197L188.485 34.0197V41.3729L165.525 41.3729C158.209 41.3729 152.289 36.3662 152.289 30.2385V11.3024C152.289 5.17474 158.194 0.167969 165.525 0.167969L188.485 0.167969V7.52119L165.525 7.52119C163.057 7.53614 161.015 9.23994 161.015 11.3024Z" fill="#E01E26"/>
<path d="M213.941 41.3639H214.088L213.941 41.4835V41.3639ZM263.005 0.26355L244.011 20.8436L242.954 21.9645V37.2688C242.954 39.4957 241.176 41.3191 238.973 41.3191H238.165C235.976 41.3191 234.184 39.5107 234.184 37.2688V22.0692L232.994 20.8436L214.015 0.26355L225.091 0.26355L238.547 14.8654L252.003 0.26355L263.005 0.26355ZM262.932 41.3639H263.005V41.4835L262.932 41.3639Z" fill="#E01E26"/>
<path d="M103.467 41.3843L85.6479 3.60189H85.6332C84.7077 1.5095 82.1517 0 78.6849 0C74.939 0 72.6768 1.5095 71.7366 3.60189H71.722L53.918 41.3843H63.9511L78.5821 10.3423C78.6115 10.3423 78.6555 10.3423 78.6849 10.3423C78.729 10.3423 78.7584 10.3423 78.8024 10.3423L93.4334 41.3843H103.467Z" fill="#E01E26"/>
<path d="M37.3364 10.5191C37.2777 10.3846 37.2189 10.2501 37.1602 10.1305H37.1748L37.3364 10.5191Z" fill="#E01E26"/>
<path d="M64.2677 0.0897217L46.2581 41.3096H39.8827L32.1265 22.3138L24.3703 41.3096L17.995 41.3096L0 0.0897217L10.7382 0.0897217L21.6821 24.0774L26.706 11.0897L27.0439 10.2228C27.0586 10.1929 27.0732 10.163 27.0879 10.1332C28.2631 7.63724 30.2609 7.14404 32.1559 7.14404C33.9921 7.14404 35.8871 7.428 37.1798 10.1332C37.2386 10.2527 37.2973 10.3872 37.3561 10.5217C37.3561 10.5367 37.3708 10.5516 37.3708 10.5666L37.4736 10.8207L42.806 24.1969L53.5295 0.0897217L64.2677 0.0897217Z" fill="#E01E26"/>
<path d="M27.0735 10.1305C27.0581 10.1608 27.0427 10.1912 27.0273 10.2215L27.0735 10.1305Z" fill="#E01E26"/>
<path d="M26.707 11.0845C26.8099 10.7706 26.9127 10.4867 27.0449 10.2177L26.707 11.0845Z" fill="#E01E26"/>
<path d="M227.563 33.7645V41.6557L210.376 41.6557C207.908 41.6557 205.587 41.1775 203.472 40.2957C200.372 38.9954 197.846 36.8731 196.362 34.2876C195.304 32.524 194.746 30.581 194.746 28.5186V4.82979C194.746 2.40861 196.685 0.435791 199.065 0.435791L199.226 0.435791C201.606 0.435791 203.545 2.40861 203.545 4.82979V28.6979C203.604 31.8365 206.131 33.6748 209.524 33.7047L227.563 33.7645Z" fill="#E01E26"/>
<path d="M78.6782 36.4666C81.2662 36.4666 83.3642 34.332 83.3642 31.6989C83.3642 29.0658 81.2662 26.9313 78.6782 26.9313C76.0902 26.9313 73.9922 29.0658 73.9922 31.6989C73.9922 34.332 76.0902 36.4666 78.6782 36.4666Z" fill="#F16622"/>
</svg>
